<svg id="edwDPqJro0b1" xmlns="http://www.w3.org/2000/svg" xmlns:xlink="http://www.w3.org/1999/xlink" viewBox="0 0 448 512" shape-rendering="geometricPrecision" text-rendering="geometricPrecision"><path d="M256,32v17.88C328.5,61.39,384,124.2,384,200v33.4c0,45.4,15.5,89.5,43.8,125L442.7,377c5.8,7.2,6.9,17.1,2.9,25.4s-12.4,13.6-21.6,13.6h-400c-9.23,0-17.635-5.3-21.631-13.6-3.997-8.3-2.873-18.2,2.891-25.4l14.91-18.6C48.54,322.9,64,278.8,64,233.4v-33.4c0-75.8,55.5-138.61,128-150.12L192,32c0-17.67,14.3-32,32-32s32,14.33,32,32v0ZM216,96c-57.4,0-104,46.6-104,104v33.4C112,281.3,98.12,328,72.31,368h303.39C349.9,328,336,281.3,336,233.4v-33.4c0-57.4-46.6-104-104-104h-16Zm72,352c0,16.1-6.7,33.3-18.7,45.3s-29.2,18.7-45.3,18.7c-17,0-33.3-6.7-45.3-18.7s-18.7-29.2-18.7-45.3h128Z" transform="matrix(.738714 0.619855-.619733 0.738569 250.988124-71.914293)"/></svg>
